<?xml version="1.0" standalone="no"?>
<!DOCTYPE svg PUBLIC "-//W3C//DTD SVG 20010904//EN"
 "http://www.w3.org/TR/2001/REC-SVG-20010904/DTD/svg10.dtd">
<svg version="1.0" xmlns="http://www.w3.org/2000/svg"
 width="421.000000pt" height="426.000000pt" viewBox="0 0 421.000000 426.000000"
 preserveAspectRatio="xMidYMid meet">

<g transform="translate(0.000000,426.000000) scale(0.100000,-0.100000)"
fill="#000000" stroke="none">
<path d="M1990 4229 c-820 -41 -1545 -572 -1846 -1351 -48 -123 -101 -334
-119 -473 -17 -135 -20 -384 -4 -523 29 -266 125 -555 265 -800 56 -98 138
-221 179 -269 5 -6 35 -40 65 -75 30 -35 102 -107 160 -161 318 -295 691 -471
1145 -539 114 -17 454 -17 555 0 447 76 757 214 1070 476 211 177 389 397 512
634 166 321 238 618 238 981 0 204 -11 309 -51 471 -77 321 -188 557 -383 815
-194 257 -505 504 -788 626 -51 22 -106 47 -123 54 -36 17 -168 59 -246 79
-172 44 -417 65 -629 55z m-365 -1729 c264 -264 483 -479 488 -477 4 1 219
213 477 472 446 445 471 468 487 452 17 -16 -8 -43 -475 -510 l-492 -492 -463
463 c-254 254 -465 462 -469 462 -5 0 -9 -350 -10 -777 l-3 -778 -22 -3 -23
-3 0 835 c0 664 3 836 13 836 6 0 228 -216 492 -480z m1473 -571 c-3 -606 -3
-614 -23 -614 -20 0 -20 8 -23 563 -1 309 -6 562 -10 562 -4 0 -210 -202 -457
-450 -247 -247 -456 -450 -463 -450 -51 0 -9 47 469 525 271 272 497 491 501
487 5 -5 7 -285 6 -623z"/>
</g>
</svg>
