<?xml version="1.0" standalone="no"?>
<!DOCTYPE svg PUBLIC "-//W3C//DTD SVG 20010904//EN"
 "http://www.w3.org/TR/2001/REC-SVG-20010904/DTD/svg10.dtd">
<svg version="1.0" xmlns="http://www.w3.org/2000/svg"
 width="421.000000pt" height="426.000000pt" viewBox="0 0 421.000000 426.000000"
 preserveAspectRatio="xMidYMid meet">

<g transform="translate(0.000000,426.000000) scale(0.100000,-0.100000)"
fill="#000000" stroke="none">
<path d="M2 3238 c0 -563 3 -1007 5 -988 14 149 26 236 39 300 78 369 240 694
482 969 93 105 136 146 304 287 61 52 225 151 350 214 489 242 1072 283 1590
110 542 -181 997 -583 1239 -1095 98 -207 168 -452 193 -670 1 -16 4 403 5
933 l1 962 -2105 0 -2105 0 2 -1022z"/>
<path d="M1130 2145 c0 -457 4 -825 9 -825 18 0 21 116 21 826 0 403 4 735 8
738 5 3 219 -205 476 -462 l468 -466 479 482 c263 266 479 487 479 492 0 6 -4
10 -10 10 -5 0 -219 -209 -475 -465 -256 -256 -472 -465 -479 -465 -7 0 -224
214 -482 475 -257 261 -474 477 -481 479 -11 4 -13 -149 -13 -819z"/>
<path d="M2598 2055 c-268 -269 -488 -493 -488 -497 0 -5 4 -8 10 -8 5 0 212
201 460 448 248 246 457 448 465 450 13 3 15 -69 15 -557 0 -365 4 -562 10
-566 6 -3 12 0 15 7 3 7 4 283 3 613 l-3 600 -487 -490z"/>
<path d="M1 1018 l-1 -1018 2105 0 2105 0 -1 963 c-1 843 -3 950 -14 865 -24
-175 -89 -399 -161 -558 -207 -455 -556 -818 -996 -1033 -302 -149 -564 -209
-913 -210 -206 -1 -323 10 -475 44 -258 59 -473 150 -685 289 -540 355 -880
910 -949 1550 -12 113 -14 23 -15 -892z"/>
</g>
</svg>
